<svg id="Layer_1" data-name="Layer 1" xmlns="http://www.w3.org/2000/svg" viewBox="0 0 129 129"><defs><style>.cls-1{fill:#fff;}</style></defs><title>1</title><path class="cls-1" d="M110.6,2.49,90.89,45.05C56.55,56.74,56,33,33.5,36.2L20.3,7.66C59.29-6.39,84.38,13.83,110.6,2.49Z"/><polygon class="cls-1" points="74.49 55.11 64.25 77.23 54 55.11 42.26 55.11 64.25 102.61 86.23 55.11 74.49 55.11"/><path class="cls-1" d="M13,110.85h3l3.87,10.93,3.93-10.93h3l-5.54,15.38H18.45Z"/><path class="cls-1" d="M29.16,126.23V110.85h2.42a12.66,12.66,0,0,1,3.08.27,4.2,4.2,0,0,1,2.2,1.36,3.63,3.63,0,0,1,.81,2.35,3.39,3.39,0,0,1-.37,1.59,4,4,0,0,1-1.21,1.34,4.77,4.77,0,0,1,2,1.65,4.19,4.19,0,0,1,.65,2.34,4.32,4.32,0,0,1-.67,2.36,4.39,4.39,0,0,1-1.72,1.6,6.71,6.71,0,0,1-2.93.52Zm2.93-12.59v3.25h.64a2.39,2.39,0,0,0,1.59-.45,1.53,1.53,0,0,0,.52-1.23,1.44,1.44,0,0,0-.49-1.14,2.29,2.29,0,0,0-1.51-.43Zm0,5.86v3.94h.73a4.49,4.49,0,0,0,2.46-.46,1.56,1.56,0,0,0,.64-1.34,1.88,1.88,0,0,0-.75-1.57,4.14,4.14,0,0,0-2.47-.57Z"/><path class="cls-1" d="M43.56,115.81H40.71a5.59,5.59,0,0,1,1.56-3.92A5.05,5.05,0,0,1,46,110.47a5,5,0,0,1,2.48.59,4.74,4.74,0,0,1,2.36,4,6.81,6.81,0,0,1-.78,3,16.05,16.05,0,0,1-2.85,3.74l-1.73,1.82h5.48v2.7H40.29v-1.4L45,120a13.78,13.78,0,0,0,2.3-2.81,4.08,4.08,0,0,0,.57-1.92,2,2,0,0,0-.59-1.46,2.08,2.08,0,0,0-1.52-.59,2,2,0,0,0-1.57.7A2.94,2.94,0,0,0,43.56,115.81Z"/><path class="cls-1" d="M58.92,110.47h2.92v9.9h1.37v2.71H61.84v3.15H59v-3.15H52.26v-2.71Zm0,9.9v-5.16l-3.51,5.16Z"/><path class="cls-1" d="M70.4,110.85h2.88l2.22,9.82,2.75-9.82h2.43l2.79,9.82,2.2-9.82h2.88l-3.47,15.38H82.27l-2.83-9.94-2.78,9.94H73.88Z"/><path class="cls-1" d="M101.92,121.37H92.74a3.08,3.08,0,0,0,1.07,1.93A3.29,3.29,0,0,0,96,124a3.83,3.83,0,0,0,2.75-1.12l2.4,1.13A5.63,5.63,0,0,1,99,125.91a6.72,6.72,0,0,1-3,.62,5.9,5.9,0,0,1-4.36-1.69A5.77,5.77,0,0,1,90,120.61a5.9,5.9,0,0,1,1.67-4.32,5.63,5.63,0,0,1,4.21-1.73,5.84,5.84,0,0,1,4.37,1.73,6.21,6.21,0,0,1,1.69,4.54Zm-2.86-2.25A2.86,2.86,0,0,0,98,117.58,3.24,3.24,0,0,0,96,117a3.39,3.39,0,0,0-2.09.67,3.71,3.71,0,0,0-1,1.47Z"/><path class="cls-1" d="M107.06,110.47v5.64a5.53,5.53,0,0,1,1.67-1.16,4.79,4.79,0,0,1,1.93-.39,5,5,0,0,1,3.78,1.69,6.1,6.1,0,0,1,1.56,4.32,6,6,0,0,1-1.61,4.25,5.07,5.07,0,0,1-3.82,1.71,4.85,4.85,0,0,1-1.83-.35,5.8,5.8,0,0,1-1.68-1.15v1.2h-2.83V110.47Zm3,6.73a3,3,0,0,0-2.24.92,3.31,3.31,0,0,0-.89,2.4,3.44,3.44,0,0,0,.89,2.46,3,3,0,0,0,2.24.93,2.87,2.87,0,0,0,2.2-1,3.71,3.71,0,0,0,0-4.82A2.91,2.91,0,0,0,110.06,117.2Z"/></svg>
